<?xml version="1.0" encoding="UTF-8" standalone="no"?>
<svg width="512px" height="512px" viewBox="0 0 512 512" version="1.1" xmlns="http://www.w3.org/2000/svg" xmlns:xlink="http://www.w3.org/1999/xlink">
    <!-- Generator: Sketch 3.6.1 (26313) - http://www.bohemiancoding.com/sketch -->
    <title>Blog</title>
    <desc>Created with Sketch.</desc>
    <defs>
        <linearGradient x1="50%" y1="0%" x2="50%" y2="100%" id="linearGradient-1">
            <stop stop-color="#FFFFFF" offset="0%"></stop>
            <stop stop-color="#FFFFFF" stop-opacity="0.5" offset="100%"></stop>
        </linearGradient>
    </defs>
    <g id="Page-1" stroke="none" stroke-width="1" fill="none" fill-rule="evenodd">
        <g id="Blog" fill="url(#linearGradient-1)">
            <path d="M256,463 C362.038672,463 448,377.038672 448,271 C448,164.961328 362.038672,79 256,79 C149.961328,79 64,164.961328 64,271 C64,377.038672 149.961328,463 256,463 Z M256,447 C353.202116,447 432,368.202116 432,271 C432,173.797884 353.202116,95 256,95 C158.797884,95 80,173.797884 80,271 C80,368.202116 158.797884,447 256,447 Z M256,431 C344.36556,431 416,359.36556 416,271 C416,182.63444 344.36556,111 256,111 C167.63444,111 96,182.63444 96,271 C96,359.36556 167.63444,431 256,431 Z M192.440658,397.688365 C191.074243,399.204144 189.901252,398.185668 189.901252,398.185668 C189.901252,398.185668 188.59704,398.135133 188.780021,395.823177 C189.927578,391.487877 195.428871,372.10547 195.428871,372.10547 L207.751523,378.384174 C207.751523,378.384174 199.648952,388.720022 192.440658,397.688365 Z M218.325564,314.58513 C226.534764,295.833675 246.354425,256.506126 246.354425,256.506126 L272.873564,270.018303 C272.873564,270.018303 255.581475,303.360017 242.273299,326.78711 C237.414048,335.341109 232.851905,344.624425 227.832727,352.411341 C219.105733,365.950684 210.88524,375.846783 210.88524,375.846783 L197.099225,369.014851 C197.099225,369.014851 204.64163,340.738913 218.325564,314.58513 Z M274.446482,267.186975 C274.861896,267.398639 311.275231,193.497892 317.964237,178.792628 C318.836684,177.080354 319.357235,177.300135 320.44691,177.587935 C321.536586,177.875735 321.614278,179.373913 321.097113,180.388908 C321.049331,180.482685 309.695755,206.547598 289.326846,248.032098 C289.112687,248.452409 283.720062,259.109863 287.302936,264.815009 C290.885811,270.520154 294.448858,268.456038 294.882764,267.604449 C297.835109,261.810147 290.498147,262.699167 294.664837,253.630858 C299.257155,244.617926 326.359742,187.293871 327.868438,183.83907 C331.825531,174.777629 326.646101,170.658007 325.081826,169.860969 C322.775368,168.68577 324.093773,163.336972 324.379232,162.776727 C327.391297,156.865216 325.040832,149.631228 319.129321,146.619163 C313.21781,143.607098 305.983823,145.957563 302.971757,151.869074 C292.558648,165.847834 247.833053,253.626756 247.833053,253.626756 L274.446482,267.186975 Z" id="Combined-Shape"></path>
        </g>
    </g>
</svg>