<?xml version="1.0" encoding="UTF-8" standalone="no"?>
<svg width="512px" height="512px" viewBox="0 0 512 512" version="1.1" xmlns="http://www.w3.org/2000/svg" xmlns:xlink="http://www.w3.org/1999/xlink">
    <!-- Generator: Sketch 3.6.1 (26313) - http://www.bohemiancoding.com/sketch -->
    <title>Dribbble</title>
    <desc>Created with Sketch.</desc>
    <defs>
        <path id="path-1" d="M30,192 C30,102.529871 102.529871,30 192,30 C281.470129,30 354,102.529871 354,192 C354,281.470129 281.470129,354 192,354 C102.529871,354 30,281.470129 30,192 Z"></path>
        <linearGradient x1="50%" y1="-11.0584525%" x2="50%" y2="111.392215%" id="linearGradient-3">
            <stop stop-color="#FFFFFF" offset="0%"></stop>
            <stop stop-color="#FFFFFF" stop-opacity="0.5" offset="100%"></stop>
        </linearGradient>
        <linearGradient x1="50%" y1="0%" x2="50%" y2="100%" id="linearGradient-4">
            <stop stop-color="#FFFFFF" offset="0%"></stop>
            <stop stop-color="#FFFFFF" stop-opacity="0.5" offset="100%"></stop>
        </linearGradient>
    </defs>
    <g id="Page-1" stroke="none" stroke-width="1" fill="none" fill-rule="evenodd">
        <g id="Dribbble">
            <g id="Path-243-+-Oval-101" transform="translate(64.000000, 64.000000)">
                <mask id="mask-2" fill="white">
                    <use xlink:href="#path-1"></use>
                </mask>
                <use id="Oval-101" xlink:href="#path-1"></use>
                <path d="M238.88832,176.304334 C235.700755,169.018832 232.151514,161.545769 228.363729,154.021533 C289.465722,127.272689 320.466929,88.6822082 320.466929,88.6822082 L317.277942,74.329065 L300.181415,68.4651629 C300.181415,68.4651629 285.011948,100.929563 214.553479,128.097284 C186.744014,78.374446 154.622622,33.3355895 154.622622,33.3355895 L134.365413,34.6990183 L119.958003,43.2589112 C119.958003,43.2589112 152.266423,85.0349958 182.420546,138.77568 C107.584127,159.881997 31.3553276,157.422093 31.3553276,157.422093 L28.6095464,172.350167 L26.9097086,188.594516 C26.9097086,188.594516 126.366593,186.585742 196.734807,165.624242 C200.884113,173.851627 204.909836,182.280679 208.718621,190.836304 C125.921541,210.743042 69.3905599,300.939899 69.3905599,300.939899 L80.9778542,321.015971 L91.9764194,321.015971 C91.9764194,321.015971 130.628795,249.726406 221.199426,221.106209 C246.520493,287.47443 254.838759,342.63428 254.838759,342.63428 C254.838759,342.63428 270.387838,349.971266 276.247908,346.829303 C280.128496,344.748669 284.608775,329.565143 284.608775,329.565143 C284.608775,329.565143 272.482995,268.368428 252.717544,211.832589 C276.43348,207.464433 293.747869,208.883913 308.461304,210.505473 C333.601242,213.276132 353.842242,219.248327 353.842242,219.248327 L356.238932,192.000003 C356.238932,192.000003 309.620558,176.080689 242.472568,184.755181 C241.298758,181.902425 240.103844,179.082539 238.88832,176.304334 Z" id="Path-243" fill="url(#linearGradient-3)" mask="url(#mask-2)"></path>
                <path d="M384,192 C384,85.961328 298.038672,0 192,0 C85.961328,0 0,85.961328 0,192 C0,298.038672 85.961328,384 192,384 C298.038672,384 384,298.038672 384,192 Z M30,192 C30,102.529871 102.529871,30 192,30 C281.470129,30 354,102.529871 354,192 C354,281.470129 281.470129,354 192,354 C102.529871,354 30,281.470129 30,192 Z" id="Oval-101" fill="url(#linearGradient-4)"></path>
            </g>
        </g>
    </g>
</svg>