<?xml version="1.0" encoding="UTF-8"?>
<svg width="512px" height="512px" viewBox="0 0 512 512" version="1.1" xmlns="http://www.w3.org/2000/svg" xmlns:xlink="http://www.w3.org/1999/xlink">
    <title>Files</title>
    <g id="Files" stroke="none" stroke-width="1" fill="none" fill-rule="evenodd">
        <path d="M385.037612,64.0188164 L385.525572,64.2587068 C386.012254,64.501281 386.495512,64.7518984 386.979028,65.0104858 C394.312362,68.9323954 400.067605,74.6876383 403.989514,82.0209717 C404.248102,82.5044882 404.498719,82.9877464 404.741293,83.4744282 L404.981184,83.9623876 C408.262504,90.7320507 410,98.391689 410,116.687417 L410,393.312583 C410,411.608311 408.262504,419.267949 404.981184,426.037612 L404.741293,426.525572 C404.498719,427.012254 404.248102,427.495512 403.989514,427.979028 C400.067605,435.312362 394.312362,441.067605 386.979028,444.989514 C386.495512,445.248102 386.012254,445.498719 385.525572,445.741293 L385.037612,445.981184 C378.267949,449.262504 370.608311,451 352.312583,451 L157.687417,451 C139.391689,451 131.732051,449.262504 124.962388,445.981184 L124.474428,445.741293 C123.987746,445.498719 123.504488,445.248102 123.020972,444.989514 C115.687638,441.067605 109.932395,435.312362 106.010486,427.979028 C105.751898,427.495512 105.501281,427.012254 105.258707,426.525572 L105.018816,426.037612 C101.77703,419.349512 100.042091,411.792751 100.000756,393.96926 L100,116.687417 C100,98.391689 101.737496,90.7320507 105.018816,83.9623876 L105.258707,83.4744282 C105.501281,82.9877464 105.751898,82.5044882 106.010486,82.0209717 C109.932395,74.6876383 115.687638,68.9323954 123.020972,65.0104858 C123.504488,64.7518984 123.987746,64.501281 124.474428,64.2587068 L124.962388,64.0188164 C131.650488,60.7770297 139.207249,59.0420915 157.03074,59.0007563 L352.312583,59 C370.608311,59 378.267949,60.7374957 385.037612,64.0188164 Z M356,89 L154,89 C140.745166,89 130,99.745166 130,113 L130,113 L130,397 C130,410.254834 140.745166,421 154,421 L154,421 L356,421 C369.254834,421 380,410.254834 380,397 L380,397 L380,113 C380,99.745166 369.254834,89 356,89 L356,89 Z M251.983736,332.604061 C255.231738,332.604061 257.958561,333.723141 260.164204,335.961302 C262.369847,338.199463 263.472669,340.962019 263.472669,344.248971 C263.472669,347.406466 262.369847,350.068897 260.164204,352.236262 C257.958561,354.403627 255.231738,355.48731 251.983736,355.48731 L251.983736,355.48731 L187.436442,355.48731 C184.060518,355.48731 181.269735,354.403627 179.064092,352.236262 C176.858449,350.068897 175.755627,347.406466 175.755627,344.248971 C175.755627,340.962019 176.858449,338.199463 179.064092,335.961302 C181.269735,333.723141 184.060518,332.604061 187.436442,332.604061 L187.436442,332.604061 Z M322.89561,269.923858 C326.153293,269.923858 328.859174,271.007684 331.013253,273.175337 C333.167333,275.342989 334.244373,278.005773 334.244373,281.163687 C334.244373,284.449051 333.167333,287.210962 331.013253,289.44942 C328.859174,291.687878 326.153293,292.807107 322.89561,292.807107 L322.89561,292.807107 L187.471255,292.807107 C184.08527,292.807107 181.286169,291.687878 179.073952,289.44942 C176.861735,287.210962 175.755627,284.449051 175.755627,281.163687 C175.755627,278.005773 176.861735,275.342989 179.073952,273.175337 C181.286169,271.007684 184.08527,269.923858 187.471255,269.923858 L187.471255,269.923858 Z M322.89561,206.248731 C326.153293,206.248731 328.859174,207.332557 331.013253,209.50021 C333.167333,211.667862 334.244373,214.330646 334.244373,217.48856 C334.244373,220.773924 333.167333,223.535835 331.013253,225.774293 C328.859174,228.012751 326.153293,229.13198 322.89561,229.13198 L322.89561,229.13198 L187.471255,229.13198 C184.08527,229.13198 181.286169,228.012751 179.073952,225.774293 C176.861735,223.535835 175.755627,220.773924 175.755627,217.48856 C175.755627,214.330646 176.861735,211.667862 179.073952,209.50021 C181.286169,207.332557 184.08527,206.248731 187.471255,206.248731 L187.471255,206.248731 Z M322.89561,143.568528 C326.153293,143.568528 328.859174,144.651848 331.013253,146.818489 C333.167333,148.98513 334.244373,151.647408 334.244373,154.805323 C334.244373,158.09271 333.167333,160.855632 331.013253,163.09409 C328.859174,165.332548 326.153293,166.451777 322.89561,166.451777 L322.89561,166.451777 L187.471255,166.451777 C184.08527,166.451777 181.286169,165.332548 179.073952,163.09409 C176.861735,160.855632 175.755627,158.09271 175.755627,154.805323 C175.755627,151.647408 176.861735,148.98513 179.073952,146.818489 C181.286169,144.651848 184.08527,143.568528 187.471255,143.568528 L187.471255,143.568528 Z" id="Rectangle-2" fill="#FFFFFF"></path>
    </g>
</svg>