<?xml version="1.0" encoding="UTF-8" standalone="no"?>
<svg width="512px" height="512px" viewBox="0 0 512 512" version="1.1" xmlns="http://www.w3.org/2000/svg" xmlns:xlink="http://www.w3.org/1999/xlink">
    <!-- Generator: Sketch 3.6.1 (26313) - http://www.bohemiancoding.com/sketch -->
    <title>Github</title>
    <desc>Created with Sketch.</desc>
    <defs>
        <linearGradient x1="50%" y1="0%" x2="50%" y2="100%" id="linearGradient-1">
            <stop stop-color="#FFFFFF" offset="0%"></stop>
            <stop stop-color="#FFFFFF" stop-opacity="0.5" offset="100%"></stop>
        </linearGradient>
    </defs>
    <g id="Page-1" stroke="none" stroke-width="1" fill="none" fill-rule="evenodd">
        <g id="Github" fill="url(#linearGradient-1)">
            <path d="M225.647554,329.43638 C222.957252,329.300756 174.753538,326.36318 157.242439,289.291534 C139.226007,251.15008 153.126109,209.443375 166.243179,202.713919 C158.380366,189.724784 165.656839,157.05364 169.212633,157.082918 C170.115068,157.090348 185.562469,154.764581 214.042039,174.242153 C234.265465,166.379464 283.873413,167.995722 299.00688,174.664733 C327.486449,155.187161 341.933851,157.512928 342.836286,157.505497 C346.392079,157.476219 353.668552,190.147363 345.80574,203.136499 C357.9746,208.044109 374.431281,249.72686 356.129676,289.291534 C338.817941,326.716291 291.762432,329.642597 286.722933,329.849664 C293.118274,337.081077 297,346.587226 297,357 L297,407.253612 C297.363403,414.508423 303.410767,417.130829 309.040332,415.45543 C375.832494,393.248977 424,330.249551 424,256 C424,163.216162 348.783838,88 256,88 C163.216162,88 88,163.216162 88,256 C88,330.307896 136.243237,393.347981 203.11716,415.507704 C211.22287,417.311127 215.247696,411.327362 215,408.011077 L215,377.87611 C207.629562,379.765215 172.931377,386.987502 159.607968,359.588313 C144.663594,328.855659 134.617299,331.086053 132.47195,326.646255 C130.3266,322.206457 145.998304,310.931373 166.039479,339.793156 C183.775452,365.335163 209.55244,355.148738 215.247694,352.467456 C216.217885,343.645484 219.986931,335.666032 225.647554,329.43638 Z M256,448 C362.038672,448 448,362.038672 448,256 C448,149.961328 362.038672,64 256,64 C149.961328,64 64,149.961328 64,256 C64,362.038672 149.961328,448 256,448 L256,448 Z" id="Combined-Shape"></path>
        </g>
    </g>
</svg>