<?xml version="1.0" encoding="UTF-8" standalone="no"?>
<svg width="512px" height="512px" viewBox="0 0 512 512" version="1.1" xmlns="http://www.w3.org/2000/svg" xmlns:xlink="http://www.w3.org/1999/xlink">
    <!-- Generator: Sketch 3.6.1 (26313) - http://www.bohemiancoding.com/sketch -->
    <title>Mail</title>
    <desc>Created with Sketch.</desc>
    <defs>
        <linearGradient x1="50%" y1="0%" x2="50%" y2="710.910404%" id="linearGradient-1">
            <stop stop-color="#FFFFFF" offset="0%"></stop>
            <stop stop-color="#FFFFFF" stop-opacity="0.5" offset="100%"></stop>
        </linearGradient>
        <linearGradient x1="50%" y1="0%" x2="50%" y2="920.283572%" id="linearGradient-2">
            <stop stop-color="#FFFFFF" offset="0%"></stop>
            <stop stop-color="#FFFFFF" stop-opacity="0.5" offset="100%"></stop>
        </linearGradient>
        <linearGradient x1="50%" y1="0%" x2="50%" y2="100%" id="linearGradient-3">
            <stop stop-color="#FFFFFF" offset="0%"></stop>
            <stop stop-color="#FFFFFF" stop-opacity="0.5" offset="100%"></stop>
        </linearGradient>
    </defs>
    <g id="Page-1" stroke="none" stroke-width="1" fill="none" fill-rule="evenodd">
        <g id="Mail">
            <g id="Emails" transform="translate(64.000000, 97.000000)">
                <path d="M325.888744,21.7795014 L346.793137,0.892838758 C345.284152,0.316011473 343.645943,0 341.933682,0 L42.6244574,0 C40.4759076,0 38.4437148,0.498058225 36.6370913,1.38483042 L57.0490749,21.7795014 L325.888744,21.7795014 Z M29.0232558,21.7795014 L29.0232558,13.5909642 C29.0232558,11.3449278 29.5689375,9.22569921 30.5351032,7.35862754 L44.9682186,21.7795014 L29.0232558,21.7795014 Z M355.534884,21.7795014 L355.534884,13.5909642 C355.534884,10.9204446 354.764308,8.42982056 353.433098,6.32911945 L337.969601,21.7795014 L355.534884,21.7795014 Z" id="Combined-Shape" fill="url(#linearGradient-1)" opacity="0.15"></path>
                <path d="M345.083791,42.4421053 L364.741712,22.776003 C363.057733,22.1321872 361.230123,21.7795014 359.320597,21.7795014 L24.6794027,21.7795014 C22.2809828,21.7795014 20.012383,22.3351311 17.9953876,23.3247657 L37.104774,42.4421053 L345.083791,42.4421053 Z M9.48837209,43.8227455 L9.48837209,36.9701404 C9.48837209,34.4615223 10.0961562,32.0952545 11.1724709,30.0104082 L23.5989962,42.4421053 L15.995943,42.4421053 C13.6786421,42.4421053 11.4764302,42.9354274 9.48837156,43.8227485 Z M374.511628,43.8217931 L374.511628,36.9701404 C374.511628,33.9878571 373.651641,31.2062984 372.166415,28.8596089 L358.589569,42.4421053 L368.004057,42.4421053 C370.321561,42.4421053 372.52372,42.93503 374.511628,43.8217962 Z" id="Combined-Shape" fill="url(#linearGradient-2)" opacity="0.3"></path>
                <path d="M8.95439108,44.0730461 C11.0791039,43.0286778 13.4691016,42.4421053 15.995943,42.4421053 L368.004057,42.4421053 C370.017793,42.4421053 371.944439,42.8142779 373.719108,43.4936183 L211.570602,205.731958 C200.23528,217.07356 181.858904,217.073351 170.523791,205.731958 L8.95439108,44.0730461 Z M1.77803586,51.1084995 C0.641758956,53.307385 0,55.8032404 0,58.4484397 L0,274.387017 C0,276.517145 0.415704502,278.550089 1.1704061,280.409001 L116.060989,165.454767 L1.77803586,51.1084995 Z M7.70984437,288.081724 C10.1263404,289.548729 12.9623198,290.393352 15.995943,290.393352 L368.004057,290.393352 C370.519646,290.393352 372.899607,289.811992 375.017208,288.776336 L258.898663,172.59346 L258.898663,172.59346 L218.674558,212.83985 C203.41548,228.107382 178.678005,228.106474 163.419834,212.83985 L123.164945,172.562659 L123.164945,172.562659 L7.70984437,288.081724 Z M382.249424,281.673571 C383.368575,279.487709 384,277.010833 384,274.387017 L384,58.4484397 C384,55.3033186 383.09375,52.3700637 381.528156,49.8960284 L266.064188,165.423966 L382.249424,281.673571 Z" id="Email" fill="url(#linearGradient-3)"></path>
            </g>
        </g>
    </g>
</svg>