<?xml version="1.0" encoding="UTF-8" standalone="no"?>
<svg width="100%" height="100%" viewBox="0 0 16 16" version="1.1" xmlns="http://www.w3.org/2000/svg" xmlns:xlink="http://www.w3.org/1999/xlink">
    <g id="icon">
        <path d="M14.0536443,9.52194124 C15.0716147,10.129563 14.9416719,10.6986054 14.9212558,10.6986054 C14.9008397,10.6986054 12.8814965,9.41092948 12.8814965,9.41092948 C12.0257544,8.8629324 10.9907216,9.01001132 10.4027106,9.71021751 C9.66178928,10.5925101 9.94179245,11.9905158 8.62112471,13.0495803 C7.30045696,14.1086447 3.36671282,14.640625 3.36671282,14.640625 L4.58153455,11.2733929 L4.60710191,11.2005046 C4.28928171,10.9600241 3.9725363,10.6868673 3.66293729,10.3765943 C1.21584694,7.92417633 1.07106123,5.01283174 1.0625,4.66883017 C1.39489135,4.66013931 3.87966981,4.78362047 6.18091373,6.71383049 C5.06551052,3.95738341 5.49637122,1.6934131 5.55818828,1.40625 C5.8556743,1.52085723 8.10614406,2.58259075 9.67886851,5.34954117 C9.18209743,5.46958963 8.54282782,5.78675037 8.01727616,6.3730456 C8.41655678,6.10831514 8.38286461,6.12219917 8.81581132,5.90189549 C9.10589584,5.75428681 9.38763661,5.65417785 9.57963281,5.60368996 C10.2296736,5.40145061 11.0004066,5.31654869 11.7280177,5.62326716 C13.4649312,6.35544865 13.3537562,8.34030122 13.3537562,8.34030122 C13.3537562,8.34030122 13.3537561,8.63901639 13.3537562,8.75211433 C13.3537565,9.02939032 13.7319153,9.32990272 14.0536443,9.52194124 Z" style="fill:#000000;"/>
    </g>
</svg>
