<?xml version="1.0" encoding="UTF-8"?>
<svg width="16px" height="16px" viewBox="0 0 16 16" version="1.1" xmlns="http://www.w3.org/2000/svg" xmlns:xlink="http://www.w3.org/1999/xlink">
    <!-- Generator: Sketch 41.2 (35397) - http://www.bohemiancoding.com/sketch -->
    <title>favicon</title>
    <desc>Created with Sketch.</desc>
    <defs>
        <path d="M14.0728847,8.88410182 C15.0358297,9.45800665 14.9129108,9.99547289 14.8935983,9.99547289 C14.8742858,9.99547289 12.9640962,8.7792501 12.9640962,8.7792501 C12.1546105,8.26166136 11.1755253,8.40057887 10.6192988,9.06193065 C9.91842725,9.89526486 10.1832951,11.2156952 8.93401482,12.2159923 C7.68473451,13.2162893 3.96362519,13.71875 3.96362519,13.71875 L5.11278088,10.5383655 L5.13696622,10.4695218 C4.83632549,10.2423856 4.53670146,9.98438619 4.24383753,9.69133019 C1.92902233,7.37499683 1.79206288,4.62520264 1.78396442,4.30028971 C2.09838867,4.29208111 4.44885478,4.40871031 6.62570713,6.23181304 C5.57059599,3.6283211 5.97816692,1.48997843 6.03664252,1.21875 C6.31804821,1.32699768 8.44687096,2.32981564 9.93458327,4.94322808 C9.46466469,5.05661506 8.85995019,5.35617656 8.36280673,5.90993828 C8.74050461,5.65989771 8.70863364,5.67301132 9.11817783,5.46493228 C9.39258211,5.3255144 9.65909365,5.23096048 9.84071167,5.18327416 C10.4556152,4.99225707 11.1846868,4.91206636 11.8729677,5.20176503 C13.515994,5.89331779 13.4108284,7.76803096 13.4108284,7.76803096 C13.4108284,7.76803096 13.4108283,8.05017044 13.4108284,8.15699258 C13.4108287,8.41888253 13.7685465,8.70271951 14.0728847,8.88410182 Z" id="path-1"></path>
    </defs>
    <g id="Page-1" stroke="none" stroke-width="1" fill="none" fill-rule="evenodd">
        <g id="favicon">
            <mask id="mask-2" fill="white">
                <use xlink:href="#path-1"></use>
            </mask>
            <use id="Oval-109" fill="#000000" xlink:href="#path-1"></use>
        </g>
    </g>
</svg>