<?xml version="1.0" encoding="UTF-8"?>
<svg width="512px" height="512px" viewBox="0 0 512 512" version="1.1" xmlns="http://www.w3.org/2000/svg" xmlns:xlink="http://www.w3.org/1999/xlink">
    <title>Mastodon</title>
    <g id="Mastodon" stroke="none" stroke-width="1" fill="none" fill-rule="evenodd">
        <g id="logo-white" transform="translate(52.000000, 42.000000)" fill="#FFFFFF" fill-rule="nonzero">
            <path d="M406.353596,94.7553503 C400.069294,48.7684453 359.356415,12.5276851 311.094434,5.5051755 C302.952078,4.31856218 272.101219,0 200.637274,0 L200.103566,0 C128.619773,0 113.283387,4.31856218 105.141031,5.5051755 C58.2226934,12.333124 15.3759191,44.8972965 4.98038966,91.4288403 C-0.019729815,114.344369 -0.553340959,139.749817 0.375537044,163.054137 C1.69967876,196.474202 1.95660293,229.835811 5.03968197,263.120212 C7.17109566,285.22893 10.8892983,307.161726 16.1664465,328.754262 C26.0480946,368.632675 66.0491245,401.819465 105.239723,415.358229 C147.199208,429.477697 192.322897,431.822026 235.559312,422.128162 C240.315268,421.038443 245.019396,419.774457 249.670044,418.334551 C260.164464,415.047195 272.47724,411.370497 281.528774,404.912149 C281.652828,404.821707 281.754828,404.704794 281.826504,404.569682 C281.898179,404.435121 281.938428,404.286222 281.94339,404.134015 L281.94339,371.881427 C281.941185,371.739146 281.907001,371.599071 281.842493,371.471679 C281.778536,371.344288 281.68646,371.23289 281.572331,371.145205 C281.458752,371.05752 281.326428,370.996306 281.185833,370.965423 C281.044688,370.934541 280.898579,370.935092 280.757985,370.967078 C253.056995,377.480023 224.670676,380.744767 196.190626,380.69348 C147.177705,380.69348 133.995448,357.797253 130.220346,348.265522 C127.18626,340.027557 125.259287,331.433889 124.48905,322.704006 C124.481331,322.557865 124.508898,322.411172 124.568996,322.277163 C124.629093,322.142602 124.721168,322.024586 124.836401,321.931387 C124.952185,321.838738 125.088368,321.774216 125.233925,321.742781 C125.379482,321.711347 125.530552,321.714105 125.675006,321.751054 C152.914515,328.21988 180.837699,331.484625 208.859024,331.477456 C215.598191,331.477456 222.317508,331.477456 229.057226,331.302637 C257.239546,330.524503 286.943595,329.10445 314.671601,323.773872 C315.363547,323.638208 316.054941,323.521295 316.648195,323.345925 C360.384133,315.078732 402.00564,289.128425 406.235055,223.416617 C406.393293,220.829638 406.788612,196.318686 406.788612,193.634095 C406.808461,184.511009 409.773076,128.914395 406.353596,94.7553503 Z M339.039672,258.723837 L293.050913,258.723837 L293.050913,147.842192 C293.050913,124.498717 283.169044,112.593429 263.069534,112.593429 C240.974132,112.593429 229.906858,126.677052 229.906858,154.495212 L229.906858,215.188027 L184.194326,215.188027 L184.194326,154.495212 C184.194326,126.677052 173.107203,112.593429 151.011802,112.593429 C131.030832,112.593429 121.050272,124.498717 121.030423,147.842192 L121.030423,258.723837 L75.0808094,258.723837 L75.0808094,144.476527 C75.0808094,121.133052 81.1351976,102.58798 93.2434225,88.8413096 C105.733734,75.1271766 122.117688,68.0853653 142.454279,68.0853653 C165.992015,68.0853653 183.779158,76.9944781 195.63707,94.7939537 L207.080365,113.70245 L218.542958,94.7939537 C230.400869,76.9944781 248.188012,68.0853653 271.686603,68.0853653 C292.003345,68.0853653 308.386748,75.1271766 320.916756,88.8413096 C333.025533,102.575296 339.079369,121.120368 339.079369,144.476527 L339.039672,258.723837 Z" id="Shape"></path>
        </g>
    </g>
</svg>