<?xml version="1.0" encoding="UTF-8" standalone="no"?>
<svg width="512px" height="512px" viewBox="0 0 512 512" version="1.1" xmlns="http://www.w3.org/2000/svg" xmlns:xlink="http://www.w3.org/1999/xlink">
    <!-- Generator: Sketch 3.6.1 (26313) - http://www.bohemiancoding.com/sketch -->
    <title>Messages</title>
    <desc>Created with Sketch.</desc>
    <defs>
        <linearGradient x1="50%" y1="0%" x2="50%" y2="100%" id="linearGradient-1">
            <stop stop-color="#FFFFFF" offset="0%"></stop>
            <stop stop-color="#FFFFFF" stop-opacity="0.5" offset="100%"></stop>
        </linearGradient>
    </defs>
    <g id="Page-1" stroke="none" stroke-width="1" fill="none" fill-rule="evenodd">
        <g id="Messages" fill="url(#linearGradient-1)">
            <path d="M229.028111,358.926644 C229.740215,356.786035 228.416432,353.493245 228.416432,353.493245 C228.416432,353.493245 193.925979,288.063927 262.35189,235.457408 C320.143291,193.183528 387.773336,218.905753 387.773336,218.905753 C387.773336,218.905753 393.047353,220.646414 395.382193,217.826202 C397.717034,215.00599 397.335936,216.144621 397.335942,210.105775 C397.335949,204.066928 387.773328,135.594766 313.279497,99.4715437 C238.785651,67.4966119 155.032612,79.6368032 98.274514,135.594765 C36.0484441,204.345236 77.0426266,278.310369 77.0426266,278.310369 C77.0426266,278.310369 90.7438347,303.49111 108.698453,318.041371 C121.061002,328.503399 121.061003,345.710305 121.061003,345.710305 C121.061003,345.710305 123.136899,369.350573 123.871693,396.060572 C123.871693,408.226641 136.735511,398.958906 136.735511,398.958906 L180.613179,370.311477 C180.613179,370.311477 193.371468,361.907495 205.44283,361.90748 C217.514192,361.907464 225.759154,361.776625 225.759154,361.776625 C225.759154,361.776625 228.316007,361.067254 229.028111,358.926644 Z M236.633831,323.221451 C236.633831,323.221451 239.759452,409.594893 357.776039,405.848026 C364.968628,406.377113 371.031794,410.929032 378.764823,415.932699 C387.359086,421.493627 395.51009,426.828231 395.51009,426.828231 C395.51009,426.828231 409.341693,437.841556 413.496326,418.531947 L413.496326,390.912123 C413.496326,390.912123 415.19808,381.42692 423.587196,374.200785 C431.382932,367.018638 448.239794,342.128319 448.239794,320.130506 C448.239794,298.132693 435.306074,228.101084 342.417522,224.953443 C232.093868,228.101084 236.633831,323.221451 236.633831,323.221451 Z" id="Path-22"></path>
        </g>
    </g>
</svg>