<?xml version="1.0" encoding="UTF-8"?>
<svg width="512px" height="512px" viewBox="0 0 512 512" version="1.1" xmlns="http://www.w3.org/2000/svg" xmlns:xlink="http://www.w3.org/1999/xlink">
    <title>Threads</title>
    <g id="Threads" stroke="none" stroke-width="1" fill="none" fill-rule="evenodd">
        <path d="M353.128675,241.100137 C351.37138,240.257787 349.586461,239.4471 347.778169,238.670838 C344.629062,180.643675 312.923382,147.423125 259.685847,147.083125 C259.44467,147.081637 259.204769,147.081637 258.963592,147.081637 C227.120644,147.081637 200.637338,160.674413 184.336994,185.408987 L213.616034,205.4947 C225.793004,187.018888 244.903533,183.0802 258.977616,183.0802 C259.140172,183.0802 259.303364,183.0802 259.464219,183.081687 C276.993395,183.193463 290.220917,188.290275 298.782152,198.22975 C305.012368,205.466013 309.179303,215.465625 311.242584,228.085575 C295.701042,225.443988 278.893059,224.631812 260.924878,225.662013 C210.309047,228.577725 177.769131,258.099287 179.954594,299.1205 C181.063581,319.9285 191.429283,337.8295 209.140988,349.523375 C224.116031,359.408875 243.402926,364.24325 263.447775,363.148875 C289.919181,361.6975 310.685859,351.597375 325.173449,333.129 C336.176197,319.104 343.135255,300.928875 346.207865,278.02775 C358.823415,285.641625 368.172989,295.661 373.336504,307.7055 C382.116603,328.179875 382.628705,361.825 355.177081,389.2545 C331.125303,413.284 302.213871,423.6795 258.52055,424.000375 C210.052997,423.64125 173.397568,408.096875 149.565291,377.798625 C127.248284,349.42775 115.714734,308.44925 115.284442,256 C115.714734,203.550325 127.248284,162.5714 149.565291,134.200738 C173.397568,103.902912 210.052359,88.35875 258.519912,87.9985625 C307.339137,88.3615125 344.633312,103.980475 369.377809,134.4245 C381.511006,149.3539 390.658714,168.1287 396.689189,190.019387 L431,180.864675 C423.690333,153.919675 412.188233,130.700862 396.536196,111.44475 C364.813517,72.414195 318.418382,52.4146895 258.639544,52 L258.40028,52 C198.742987,52.4132488 152.867391,72.488825 122.048221,111.668513 C94.6233709,146.5336 80.4768283,195.045863 80,255.856563 L80,256 L80,256.143438 C80.4768283,316.9535 94.6233709,365.46725 122.048221,400.332125 C152.867391,439.51075 198.742987,459.58775 258.40028,460 L258.639544,460 C311.678189,459.632375 349.063735,445.7455 379.862081,414.973375 C420.156619,374.71525 418.9433,324.252875 405.662655,293.274625 C396.134589,271.059875 377.968792,253.016925 353.128675,241.100137 Z M261.552787,327.202375 C239.368798,328.451875 216.321886,318.494125 215.185488,297.1655 C214.343176,281.35125 226.4394,263.70525 262.914212,261.6032 C267.091347,261.362225 271.190285,261.2445 275.216976,261.2445 C288.465747,261.2445 300.860307,262.531613 312.128669,264.995125 C307.92561,317.486875 283.272484,326.01025 261.552787,327.202375 Z" id="Shape" fill="#FFFFFF" fill-rule="nonzero"></path>
    </g>
</svg>