<?xml version="1.0" encoding="UTF-8" standalone="no"?>
<svg width="512px" height="512px" viewBox="0 0 512 512" version="1.1" xmlns="http://www.w3.org/2000/svg" xmlns:xlink="http://www.w3.org/1999/xlink">
    <!-- Generator: Sketch 3.6.1 (26313) - http://www.bohemiancoding.com/sketch -->
    <title>Twitter</title>
    <desc>Created with Sketch.</desc>
    <defs>
        <linearGradient x1="50%" y1="0%" x2="50%" y2="100%" id="linearGradient-1">
            <stop stop-color="#FFFFFF" offset="0%"></stop>
            <stop stop-color="#FFFFFF" stop-opacity="0.5" offset="100%"></stop>
        </linearGradient>
    </defs>
    <g id="Page-1" stroke="none" stroke-width="1" fill="none" fill-rule="evenodd">
        <g id="Twitter" fill="url(#linearGradient-1)">
            <path d="M326.831315,106 C285.47746,106 251.953537,139.52144 251.953537,180.872232 C251.953537,187.502799 252.8155,193.932059 254.433493,200.054086 C238.453499,200.923169 190.605688,190.219185 159.084049,172.437527 C121.31426,151.131226 97.4941623,120.534644 97.4941623,120.534644 C97.4941623,120.534644 80.6833984,149.118813 88.883138,178.854892 C97.0828776,208.590972 120.225629,221.188126 120.225629,221.188126 C120.225629,221.188126 110.569755,220.715981 104.917253,219.374414 C99.2647497,218.032848 86.310612,213.138724 86.310612,213.138724 C86.310612,213.138724 88.773329,243.989781 105.432357,262.197764 C122.091385,280.405747 146.06569,286.778189 146.06569,286.778189 C146.06569,286.778189 136.497663,288.988181 131.177582,289.3086 C125.857501,289.629019 113.332617,289.308603 113.332617,289.308603 C113.332617,289.308603 121.061176,310.624944 137.068338,324.131455 C153.075499,337.637966 182.780838,341.29034 182.780838,341.29034 C182.780838,341.29034 152.382704,362.581235 128.108919,368.796949 C103.835135,375.012662 72,371.748609 72,371.748609 C72,371.748609 186.513346,445.596199 300.367339,376.216008 C414.221332,306.835818 401.980621,181.117786 401.980621,181.117786 C401.980621,181.117786 430.059288,161.387065 440.227604,142.048632 C419.89197,151.548905 412.718446,151.272905 397.849805,153.883172 C416.928125,144.296556 429.416905,112.82712 429.416905,112.82712 C429.416905,112.82712 414.764638,120.033303 406.927018,123.014647 C399.272527,125.926331 383.16667,130.495602 382.418212,130.707537 C368.715052,115.535054 348.886782,106 326.831315,106 Z" id="Oval-25"></path>
        </g>
    </g>
</svg>